# AST/ASF file generated using VICON BodyLanguage
# -----------------------------------------------
:version 1.10
:name VICON
:units
  mass 1.0
  length 0.45
  angle deg
:documentation
   .ast/.asf automatically generated from VICON data using
   VICON BodyBuilder and BodyLanguage model FoxedUp or BRILLIANT.MOD
:root
   order TX TY TZ RX RY RZ
   axis XYZ
   position 0 0 0  
   orientation 0 0 0 
:bonedata
  begin
     id 1 
     name lhipjoint
     direction 0.662698 -0.695252 0.27831 
     length 2.53073 
     axis 0 0 0  XYZ
  end
  begin
     id 2 
     name lfemur
     direction 0.34202 -0.939693 0  
     length 7.16147  
     axis 0 0 20  XYZ
    dof rx ry rz
    limits (-160.0 20.0)
           (-70.0 70.0)
           (-60.0 70.0)
  end
  begin
     id 3 
     name ltibia
     direction 0.34202 -0.939693 0   
     length 7.63967   
     axis 0 0 20   XYZ
    dof rx
    limits (-10.0 170.0)
  end
  begin
     id 4 
     name lfoot
     direction 0.0938457 -0.257721 0.961651   
     length 1.89793   
     axis -90 7.62852e-016 20   XYZ
    dof rx rz
    limits (-45.0 90.0)
           (-70.0 20.0)
  end
  begin
     id 5 
     name ltoes
     direction -0.00116841 -0.0030592 0.999995   
     length 0.955649   
     axis -90 7.62852e-016 20   XYZ
    dof rx
    limits (-90.0 20.0)
  end
  begin
     id 6 
     name rhipjoint
     direction -0.649445 -0.705948 0.282592   
     length 2.49238  
     axis 0 0 0  XYZ 
  end
  begin
     id 7 
     name rfemur
     direction -0.34202 -0.939693 0   
     length 6.90728   
     axis 0 0 -20   XYZ
    dof rx ry rz
    limits (-160.0 20.0)
           (-70.0 70.0)
           (-70.0 60.0)
  end
  begin
     id 8 
     name rtibia
     direction -0.34202 -0.939693 0   
     length 7.72868   
     axis 0 0 -20   XYZ
    dof rx
    limits (-10.0 170.0)
 end
 begin
     id 9 
     name rfoot
     direction -0.0920068 -0.252865 0.963117   
     length 1.97476  
     axis -90 -7.62852e-016 -20   XYZ
    dof rx rz
    limits (-45.0 90.0)
           (-20.0 70.0)
  end
  begin
     id 10 
     name rtoes
     direction 0.000391322 0.00230649 0.999997   
     length 0.992641   
     axis -90 -7.62852e-016 -20   XYZ
    dof rx
    limits (-90.0 20.0)
  end
  begin
     id 11 
     name lowerback
     direction -0.00875327 0.998321 -0.0572635   
     length 2.20024   
     axis 0 0 0   XYZ
    dof rx ry rz
    limits (-20.0 45.0)
           (-30.0 30.0)
           (-30.0 30.0)
  end
  begin
     id 12 
     name upperback
     direction 0.00753931 0.999972 -0.000360425   
     length 2.20538   
     axis 0 0 0   XYZ
    dof rx ry rz
    limits (-20.0 45.0)
           (-30.0 30.0)
           (-30.0 30.0)
  end
  begin
     id 13 
     name thorax
     direction 0.0117767 0.999601 0.0256663   
     length 2.21508   
     axis 0 0 0   XYZ
    dof rx ry rz
    limits (-20.0 45.0)
           (-30.0 30.0)
           (-30.0 30.0)
  end
  begin
     id 14 
     name lowerneck
     direction 0.060228 0.994909 0.0807986   
     length 1.7607   
     axis 0 0 0   XYZ
    dof rx ry rz
    limits (-20.0 45.0)
           (-30.0 30.0)
           (-30.0 30.0)
  end
  begin
     id 15 
     name upperneck
     direction -0.0563647 0.959594 -0.275685   
     length 1.75612   
     axis 0 0 0   XYZ
    dof rx ry rz
    limits (-20.0 45.0)
           (-30.0 30.0)
           (-30.0 30.0)
  end
  begin
     id 16
     name head
     direction -0.0161544 0.99458 -0.102714  
     length 1.79288  
     axis 0 0 0   XYZ
    dof rx ry rz
    limits (-20.0 45.0)
           (-30.0 30.0)
           (-30.0 30.0)
  end
  begin
     id 17 
     name lclavicle
     direction 0.93913 0.332189 -0.087669  
     length 3.52087  
     axis 0 0 0   XYZ
    dof ry rz
    limits (-20.0 10.0)
           (0.0 20.0)
  end
  begin
     id 18 
     name lhumerus
     direction 1 -4.48974e-011 -2.70836e-027   
     length 5.35289   
     axis -180 -30 -90   XYZ
    dof rx ry rz
    limits (-60.0 90.0)
           (-90.0 90.0)
           (-90.0 90.0)
  end
  begin
     id 19
     name lradius
     direction 1 -4.48961e-011 -9.76021e-027   
     length 3.27727   
     axis -180 -30 -90   XYZ
    dof rx
    limits (-10.0 170.0)
  end
  begin
     id 20
     name lwrist
     direction 1 -4.49103e-011 -2.23668e-026   
     length 1.63864   
     axis 1.44924e-014 90 90   XYZ
    dof ry
    limits (-180.0 0.0)
 end
  begin
     id 21 
     name lhand
     direction 1 3.0697e-005 0.000161777   
     length 0.54443   
     axis 2.85318e-014 90 90   XYZ
    dof rx rz
    limits (-90.0 90.0)
           (-45.0 45.0)
  end
  begin
     id 22 
     name lfingers
     direction 1 -4.49027e-011 -8.9447e-026   
     length 0.438912   
     axis 5.70628e-014 90 90   XYZ
    dof rx
    limits (0.0 90.0)
  end
  begin
     id 23
     name lthumb
     direction 0.707058 2.6516e-005 0.707156   
     length 0.630274   
     axis -90 45 -3.53137e-014   XYZ
    dof rx rz
    limits (-45.0 45.0)
           (-45.0 45.0)
  end
  begin
     id 24 
     name rclavicle
     direction -0.95274 0.284984 -0.105215   
     length 3.43401  
     axis 0 0 0   XYZ 
    dof ry rz
    limits (-10.0 20.0)
           (-20.0 0.0)
  end
  begin
     id 25 
     name rhumerus
     direction -0.999999 -0.000575019 -0.00106829  
     length 5.52077   
     axis -180 30 90   XYZ
    dof rx ry rz
    limits (-90.0 60.0)
           (-90.0 90.0)
           (-90.0 90.0)
  end
  begin
     id 26 
     name rradius
     direction -1 -4.4879e-011 -6.35415e-027   
     length 3.32364   
     axis -180 30 90   XYZ
    dof rx
    limits (-10.0 170.0)
  end
  begin
     id 27 
     name rwrist
     direction -1 -4.49048e-011 -9.98542e-027   
     length 1.66182   
     axis 6.32482e-015 -90 -90   XYZ
    dof ry
    limits (-180.0 0.0)
  end
  begin
     id 28
     name rhand
     direction -1 -4.48978e-011 -1.99771e-026   
     length 0.732235   
     axis 1.27479e-014 -90 -90   XYZ
    dof rx rz
    limits (-90.0 90.0)
           (-45.0 45.0)
  end
  begin
     id 29
     name rfingers
     direction -1 -4.49144e-011 -3.99245e-026   
     length 0.590347   
     axis 2.5496e-014 -90 -90   XYZ
    dof rx
    limits (0.0 90.0)
  end
  begin
     id 30
     name rthumb
     direction -0.707107 -6.35121e-011 0.707107   
     length 0.847624   
     axis -90 -45 -2.82974e-014   XYZ
    dof rx rz
    limits (-45.0 45.0)
           (-45.0 45.0)
  end
:hierarchy
  begin
    root lhipjoint rhipjoint lowerback
    lhipjoint lfemur
    lfemur ltibia
    ltibia lfoot
    lfoot ltoes
    rhipjoint rfemur
    rfemur rtibia
    rtibia rfoot
    rfoot rtoes
    lowerback upperback
    upperback thorax
    thorax lowerneck lclavicle rclavicle
    lowerneck upperneck
    upperneck head
    lclavicle lhumerus
    lhumerus lradius
    lradius lwrist
    lwrist lhand lthumb
    lhand lfingers
    rclavicle rhumerus
    rhumerus rradius
    rradius rwrist
    rwrist rhand rthumb
    rhand rfingers
  end

#!OML:ASF G:\Work\Work\Patient Classification 1\Elijah\terrain1\Elijah.ASF
:FULLY-SPECIFIED
:DEGREES
117
root 16.3688 23.6923 -2.84389 3.49461 -4.15562 1.73697
lowerback 6.47544 0.643863 -6.44257
upperback -0.50622 0.214692 -3.2219
thorax -4.18184 0.212265 0.246448
lowerneck -19.4716 10.6667 9.61795
upperneck 19.67 15.505 -13.7235
head 11.5435 6.25363 -3.96827
rclavicle 5.06901e-015 2.22639e-014
rhumerus -37.868 0.997515 -88.8155
rradius 31.6002
rwrist -1.82796
rhand -15.7434 23.1702
rfingers 7.12502
rthumb 10.4477 -6.55019
lclavicle 5.06901e-015 2.22639e-014
lhumerus -20.4483 -0.210578 78.9845
lradius 37.1922
lwrist 3.87258
lhand -18.7172 27.2008
lfingers 7.12502
lthumb 7.57816 57.0451
rfemur -34.9951 -10.3113 19.5392
rtibia 83.9016
rfoot 3.13074 -1.13138
rtoes -13.9581
lfemur -22.2015 -4.5572 -24.8039
ltibia 43.919
lfoot -17.1098 -7.56636
ltoes -1.98541
118
root 16.3667 23.7029 -2.76543 3.36014 -4.00984 1.88766
lowerback 6.89739 0.372274 -6.94436
upperback -0.774683 -0.232641 -2.93603
thorax -4.67715 0.0238163 0.863837
lowerneck -19.0394 10.6336 9.24918
upperneck 19.6399 15.5993 -13.7309
head 11.4317 6.28973 -3.91028
rclavicle -4.87022e-015 9.54166e-015
rhumerus -38.3328 1.81112 -88.6894
rradius 31.8398
rwrist -2.36844
rhand -15.807 22.5958
rfingers 7.12502
rthumb 10.3863 -7.12772
lclavicle -4.87022e-015 9.54166e-015
lhumerus -20.8656 0.295644 79.1471
lradius 37.7392
lwrist 4.30798
lhand -17.8267 28.9419
lfingers 7.12502
lthumb 8.4376 58.7533
rfemur -36.481 -10.923 19.8591
rtibia 84.5438
rfoot 1.92616 -1.08903
rtoes -16.1222
lfemur -21.6632 -4.57137 -24.9829
ltibia 43.7129
lfoot -16.87 -7.8918
ltoes -0.44672
119
root 16.3635 23.727 -2.6697 3.10711 -3.97429 1.99297
lowerback 7.00885 0.476177 -6.81988
upperback -0.208969 -0.0689459 -3.19043
thorax -4.15764 0.0749245 0.517041
lowerneck -20.294 10.8369 9.81555
upperneck 19.7921 15.7345 -14.0485
head 11.8321 6.28697 -4.04511
rclavicle -4.47266e-015 -1.59028e-014
rhumerus -37.2873 1.0859 -88.6945
rradius 31.876
rwrist -2.70688
rhand -15.9499 22.3172
rfingers 7.12502
rthumb 10.2485 -7.41316
lclavicle -4.47266e-015 -1.59028e-014
lhumerus -19.6481 -0.642371 79.1315
lradius 38.3411
lwrist 5.05637
lhand -18.9795 24.9351
lfingers 7.12502
lthumb 7.32489 54.7883
rfemur -37.6969 -11.3953 20.222
rtibia 84.8918
rfoot 0.805671 -0.998579
rtoes -17.3993
lfemur -20.9587 -4.59545 -25.1266
ltibia 43.5383
lfoot -16.7366 -8.00516
ltoes 0.0187272
120
root 16.3595 23.7411 -2.58034 2.9353 -3.85888 2.02964
lowerback 7.21181 0.30758 -7.16103
upperback -0.313309 -0.339683 -2.98154
thorax -4.3631 -0.04163 0.95131
lowerneck -19.4753 10.6742 9.66245
upperneck 19.5806 15.6414 -14.2769
head 11.5944 6.25746 -4.15111
rclavicle -1.23246e-014 -2.70347e-014
rhumerus -37.581 1.53106 -88.5226
rradius 31.9945
rwrist -2.84797
rhand -15.9764 22.3138
rfingers 7.12502
rthumb 10.2229 -7.41775
lclavicle -1.23246e-014 -2.70347e-014
lhumerus -20.122 -0.511931 79.2462
lradius 39.2534
lwrist 5.49
lhand -18.8542 27.2417
lfingers 7.12502
lthumb 7.44584 57.0906
rfemur -38.9557 -11.8826 20.7038
rtibia 85.0475
rfoot -0.273527 -0.907933
rtoes -19.0642
lfemur -20.4339 -4.60819 -25.1953
ltibia 43.4304
lfoot -16.5649 -8.02416
ltoes -0.331492
121
root 16.3567 23.7378 -2.50196 2.82475 -3.61862 2.27126
lowerback 7.51219 0.309951 -7.33896
upperback -0.285563 -0.387514 -3.1282
thorax -4.50111 -0.0595246 0.902122
lowerneck -19.3935 10.7931 10.2315
upperneck 19.5112 15.7124 -14.553
head 11.6422 6.30745 -4.3308
rclavicle 1.33186e-014 3.18055e-015
rhumerus -37.4247 0.75151 -88.2763
rradius 31.8082
rwrist -2.482
rhand -15.8333 22.3474
rfingers 7.12502
rthumb 10.3609 -7.37732
lclavicle 1.33186e-014 3.18055e-015
lhumerus -19.8845 -1.08631 79.2428
lradius 39.9558
lwrist 5.69456
lhand -19.0086 27.6425
lfingers 7.12502
lthumb 7.29682 57.4967
rfemur -40.3758 -12.4543 20.9645
rtibia 85.1599
rfoot -0.683295 -0.96112
rtoes -19.0412
lfemur -20.0384 -4.62848 -25.4986
ltibia 43.3969
lfoot -16.3807 -8.15926
ltoes 0.0933335
122
root 16.3506 23.7379 -2.41833 2.75481 -3.60273 2.55077
lowerback 7.00163 0.474876 -7.28057
upperback 0.431792 -0.0748928 -3.49628
thorax -3.48394 0.0484357 0.46105
lowerneck -20.5422 10.7852 10.3065
upperneck 19.2766 15.5267 -14.5106
head 11.7487 6.18469 -4.32007
rclavicle 3.97569e-015 -4.45278e-014
rhumerus -36.0847 -0.47161 -88.1614
rradius 31.5143
rwrist -1.95602
rhand -16.0266 22.4149
rfingers 7.12502
rthumb 10.1745 -7.31909
lclavicle 3.97569e-015 -4.45278e-014
lhumerus -18.2551 -1.99577 79.1797
lradius 40.5081
lwrist 5.96694
lhand -18.6292 29.8092
lfingers 7.12502
lthumb 7.66308 59.6503
rfemur -41.8287 -12.7287 21.2302
rtibia 85.1023
rfoot -0.737529 -1.21272
rtoes -17.436
lfemur -19.6677 -4.49137 -25.8509
ltibia 43.4282
lfoot -16.3241 -8.2297
ltoes -0.662563
